<mxfile host="65bd71144e">
    <diagram id="hbpcAMWR0ZgKv4X6DRIc" name="Page-1">
        <mxGraphModel dx="994" dy="563" grid="1" gridSize="10" guides="1" tooltips="1" connect="1" arrows="1" fold="1" page="1" pageScale="1" pageWidth="850" pageHeight="1100" math="0" shadow="0">
            <root>
                <mxCell id="0"/>
                <mxCell id="1" parent="0"/>
                <mxCell id="2" value="" style="whiteSpace=wrap;html=1;aspect=fixed;rounded=0;" parent="1" vertex="1">
                    <mxGeometry x="170" y="10" width="650" height="650" as="geometry"/>
                </mxCell>
                <mxCell id="3" value="client" style="shape=umlActor;verticalLabelPosition=bottom;verticalAlign=top;html=1;outlineConnect=0;rounded=0;" parent="1" vertex="1">
                    <mxGeometry x="70" y="240" width="30" height="60" as="geometry"/>
                </mxCell>
                <mxCell id="5" value="chef&lt;br&gt;(admin)" style="shape=umlActor;verticalLabelPosition=bottom;verticalAlign=top;html=1;outlineConnect=0;rounded=0;" parent="1" vertex="1">
                    <mxGeometry x="70" y="390" width="30" height="60" as="geometry"/>
                </mxCell>
                <mxCell id="6" value="Consulter" style="ellipse;whiteSpace=wrap;html=1;rounded=0;" parent="1" vertex="1">
                    <mxGeometry x="260" y="80" width="140" height="60" as="geometry"/>
                </mxCell>
                <mxCell id="7" value="Autentification" style="ellipse;whiteSpace=wrap;html=1;rounded=0;" parent="1" vertex="1">
                    <mxGeometry x="660" y="270" width="140" height="60" as="geometry"/>
                </mxCell>
                <mxCell id="8" value="reserver" style="ellipse;whiteSpace=wrap;html=1;rounded=0;" parent="1" vertex="1">
                    <mxGeometry x="500" y="80" width="140" height="60" as="geometry"/>
                </mxCell>
                <mxCell id="9" value="accepter" style="ellipse;whiteSpace=wrap;html=1;rounded=0;" parent="1" vertex="1">
                    <mxGeometry x="480" y="365" width="150" height="60" as="geometry"/>
                </mxCell>
                <mxCell id="10" value="refuser" style="ellipse;whiteSpace=wrap;html=1;rounded=0;" parent="1" vertex="1">
                    <mxGeometry x="170" y="370" width="150" height="55" as="geometry"/>
                </mxCell>
                <mxCell id="11" value="Gérie les reservation des clients" style="ellipse;whiteSpace=wrap;html=1;rounded=0;" parent="1" vertex="1">
                    <mxGeometry x="320" y="270" width="150" height="60" as="geometry"/>
                </mxCell>
                <mxCell id="12" value="Gérie le profile" style="ellipse;whiteSpace=wrap;html=1;rounded=0;" parent="1" vertex="1">
                    <mxGeometry x="270" y="550" width="160" height="60" as="geometry"/>
                </mxCell>
                <mxCell id="16" value="" style="endArrow=none;html=1;exitX=1;exitY=0.3333333333333333;exitDx=0;exitDy=0;exitPerimeter=0;entryX=0;entryY=0.5;entryDx=0;entryDy=0;rounded=0;" parent="1" source="5" target="12" edge="1">
                    <mxGeometry width="50" height="50" relative="1" as="geometry">
                        <mxPoint x="310" y="430" as="sourcePoint"/>
                        <mxPoint x="360" y="380" as="targetPoint"/>
                    </mxGeometry>
                </mxCell>
                <mxCell id="20" value="include" style="endArrow=classic;html=1;entryX=0;entryY=0.5;entryDx=0;entryDy=0;exitX=1;exitY=0.5;exitDx=0;exitDy=0;rounded=0;" parent="1" source="11" target="7" edge="1">
                    <mxGeometry width="50" height="50" relative="1" as="geometry">
                        <mxPoint x="310" y="430" as="sourcePoint"/>
                        <mxPoint x="360" y="380" as="targetPoint"/>
                        <Array as="points"/>
                    </mxGeometry>
                </mxCell>
                <mxCell id="21" value="include" style="endArrow=classic;html=1;entryX=0;entryY=0.5;entryDx=0;entryDy=0;exitX=1;exitY=0.5;exitDx=0;exitDy=0;rounded=0;" parent="1" source="12" target="7" edge="1">
                    <mxGeometry width="50" height="50" relative="1" as="geometry">
                        <mxPoint x="310" y="430" as="sourcePoint"/>
                        <mxPoint x="360" y="380" as="targetPoint"/>
                        <Array as="points">
                            <mxPoint x="610" y="480"/>
                        </Array>
                    </mxGeometry>
                </mxCell>
                <mxCell id="23" value="include" style="endArrow=classic;html=1;exitX=1;exitY=0.5;exitDx=0;exitDy=0;rounded=0;" parent="1" source="6" target="7" edge="1">
                    <mxGeometry width="50" height="50" relative="1" as="geometry">
                        <mxPoint x="470" y="150" as="sourcePoint"/>
                        <mxPoint x="520" y="100" as="targetPoint"/>
                        <Array as="points">
                            <mxPoint x="620" y="180"/>
                        </Array>
                    </mxGeometry>
                </mxCell>
                <mxCell id="24" value="" style="endArrow=none;html=1;entryX=0;entryY=0.5;entryDx=0;entryDy=0;rounded=0;" parent="1" source="46" target="6" edge="1">
                    <mxGeometry width="50" height="50" relative="1" as="geometry">
                        <mxPoint x="430" y="350" as="sourcePoint"/>
                        <mxPoint x="480" y="300" as="targetPoint"/>
                    </mxGeometry>
                </mxCell>
                <mxCell id="25" value="extend" style="endArrow=none;dashed=1;html=1;entryX=0;entryY=0.5;entryDx=0;entryDy=0;rounded=0;" parent="1" target="8" edge="1">
                    <mxGeometry width="50" height="50" relative="1" as="geometry">
                        <mxPoint x="400" y="110" as="sourcePoint"/>
                        <mxPoint x="480" y="300" as="targetPoint"/>
                    </mxGeometry>
                </mxCell>
                <mxCell id="26" value="" style="endArrow=none;html=1;exitX=1;exitY=0.3333333333333333;exitDx=0;exitDy=0;exitPerimeter=0;entryX=0;entryY=0.5;entryDx=0;entryDy=0;rounded=0;" parent="1" source="5" target="11" edge="1">
                    <mxGeometry width="50" height="50" relative="1" as="geometry">
                        <mxPoint x="360" y="410" as="sourcePoint"/>
                        <mxPoint x="410" y="360" as="targetPoint"/>
                    </mxGeometry>
                </mxCell>
                <mxCell id="29" value="Gestion d'un chef couisine" style="text;html=1;strokeColor=none;fillColor=none;align=center;verticalAlign=middle;whiteSpace=wrap;rounded=0;" parent="1" vertex="1">
                    <mxGeometry x="330" y="10" width="310" height="40" as="geometry"/>
                </mxCell>
                <mxCell id="31" value="" style="endArrow=classic;html=1;entryX=1;entryY=1;entryDx=0;entryDy=0;exitX=0.5;exitY=0;exitDx=0;exitDy=0;rounded=0;" parent="1" source="9" target="11" edge="1">
                    <mxGeometry width="50" height="50" relative="1" as="geometry">
                        <mxPoint x="480" y="310" as="sourcePoint"/>
                        <mxPoint x="530" y="260" as="targetPoint"/>
                    </mxGeometry>
                </mxCell>
                <mxCell id="32" value="" style="endArrow=classic;html=1;entryX=0;entryY=1;entryDx=0;entryDy=0;exitX=0.5;exitY=0;exitDx=0;exitDy=0;rounded=0;" parent="1" source="10" target="11" edge="1">
                    <mxGeometry width="50" height="50" relative="1" as="geometry">
                        <mxPoint x="480" y="310" as="sourcePoint"/>
                        <mxPoint x="530" y="260" as="targetPoint"/>
                    </mxGeometry>
                </mxCell>
                <mxCell id="33" value="" style="whiteSpace=wrap;html=1;aspect=fixed;rounded=0;" parent="1" vertex="1">
                    <mxGeometry x="170" y="650" width="650" height="650" as="geometry"/>
                </mxCell>
                <mxCell id="34" value="voir les statistique" style="ellipse;whiteSpace=wrap;html=1;rounded=0;" parent="1" vertex="1">
                    <mxGeometry x="330" y="410" width="140" height="60" as="geometry"/>
                </mxCell>
                <mxCell id="35" value="gérie les Menu" style="ellipse;whiteSpace=wrap;html=1;rounded=0;" parent="1" vertex="1">
                    <mxGeometry x="300" y="680" width="190" height="60" as="geometry"/>
                </mxCell>
                <mxCell id="36" value="" style="endArrow=classic;html=1;entryX=0.5;entryY=1;entryDx=0;entryDy=0;exitX=0.5;exitY=0;exitDx=0;exitDy=0;rounded=0;" parent="1" source="34" target="11" edge="1">
                    <mxGeometry width="50" height="50" relative="1" as="geometry">
                        <mxPoint x="440" y="630" as="sourcePoint"/>
                        <mxPoint x="490" y="580" as="targetPoint"/>
                    </mxGeometry>
                </mxCell>
                <mxCell id="37" value="" style="endArrow=none;html=1;exitX=1;exitY=1;exitDx=0;exitDy=0;exitPerimeter=0;entryX=0;entryY=0;entryDx=0;entryDy=0;rounded=0;" parent="1" source="5" target="35" edge="1">
                    <mxGeometry width="50" height="50" relative="1" as="geometry">
                        <mxPoint x="440" y="630" as="sourcePoint"/>
                        <mxPoint x="490" y="580" as="targetPoint"/>
                    </mxGeometry>
                </mxCell>
                <mxCell id="38" value="Ajouter" style="ellipse;whiteSpace=wrap;html=1;rounded=0;" parent="1" vertex="1">
                    <mxGeometry x="200" y="760" width="150" height="55" as="geometry"/>
                </mxCell>
                <mxCell id="39" value="Consulter" style="ellipse;whiteSpace=wrap;html=1;rounded=0;" parent="1" vertex="1">
                    <mxGeometry x="325" y="840" width="150" height="55" as="geometry"/>
                </mxCell>
                <mxCell id="40" value="Modéfier" style="ellipse;whiteSpace=wrap;html=1;rounded=0;" parent="1" vertex="1">
                    <mxGeometry x="450" y="760" width="150" height="55" as="geometry"/>
                </mxCell>
                <mxCell id="41" value="" style="endArrow=classic;html=1;entryX=0;entryY=1;entryDx=0;entryDy=0;rounded=0;" parent="1" source="38" target="35" edge="1">
                    <mxGeometry width="50" height="50" relative="1" as="geometry">
                        <mxPoint x="440" y="770" as="sourcePoint"/>
                        <mxPoint x="490" y="720" as="targetPoint"/>
                        <Array as="points">
                            <mxPoint x="310" y="750"/>
                        </Array>
                    </mxGeometry>
                </mxCell>
                <mxCell id="42" value="" style="endArrow=classic;html=1;entryX=0.5;entryY=1;entryDx=0;entryDy=0;exitX=0.5;exitY=0;exitDx=0;exitDy=0;rounded=0;" parent="1" source="39" target="35" edge="1">
                    <mxGeometry width="50" height="50" relative="1" as="geometry">
                        <mxPoint x="440" y="770" as="sourcePoint"/>
                        <mxPoint x="490" y="720" as="targetPoint"/>
                    </mxGeometry>
                </mxCell>
                <mxCell id="44" value="" style="endArrow=classic;html=1;entryX=1;entryY=1;entryDx=0;entryDy=0;exitX=0;exitY=0;exitDx=0;exitDy=0;rounded=0;" parent="1" source="40" target="35" edge="1">
                    <mxGeometry width="50" height="50" relative="1" as="geometry">
                        <mxPoint x="440" y="770" as="sourcePoint"/>
                        <mxPoint x="490" y="720" as="targetPoint"/>
                    </mxGeometry>
                </mxCell>
                <mxCell id="45" value="include" style="endArrow=classic;html=1;exitX=1;exitY=0;exitDx=0;exitDy=0;entryX=0.5;entryY=1;entryDx=0;entryDy=0;rounded=0;" parent="1" source="35" target="7" edge="1">
                    <mxGeometry width="50" height="50" relative="1" as="geometry">
                        <mxPoint x="440" y="630" as="sourcePoint"/>
                        <mxPoint x="490" y="580" as="targetPoint"/>
                        <Array as="points">
                            <mxPoint x="690" y="540"/>
                        </Array>
                    </mxGeometry>
                </mxCell>
                <mxCell id="46" value="Guest" style="shape=umlActor;verticalLabelPosition=bottom;verticalAlign=top;html=1;outlineConnect=0;rounded=0;" vertex="1" parent="1">
                    <mxGeometry x="70" y="80" width="30" height="60" as="geometry"/>
                </mxCell>
                <mxCell id="49" value="Consulter" style="ellipse;whiteSpace=wrap;html=1;rounded=0;" vertex="1" parent="1">
                    <mxGeometry x="210" y="190" width="140" height="60" as="geometry"/>
                </mxCell>
                <mxCell id="50" value="reserver" style="ellipse;whiteSpace=wrap;html=1;rounded=0;" vertex="1" parent="1">
                    <mxGeometry x="440" y="190" width="140" height="60" as="geometry"/>
                </mxCell>
                <mxCell id="51" value="" style="endArrow=none;html=1;exitX=1;exitY=0.3333333333333333;exitDx=0;exitDy=0;exitPerimeter=0;" edge="1" parent="1" source="3" target="49">
                    <mxGeometry width="50" height="50" relative="1" as="geometry">
                        <mxPoint x="400" y="340" as="sourcePoint"/>
                        <mxPoint x="450" y="290" as="targetPoint"/>
                    </mxGeometry>
                </mxCell>
                <mxCell id="55" value="extend" style="endArrow=none;dashed=1;html=1;exitX=1;exitY=0.5;exitDx=0;exitDy=0;" edge="1" parent="1" source="49" target="50">
                    <mxGeometry width="50" height="50" relative="1" as="geometry">
                        <mxPoint x="400" y="340" as="sourcePoint"/>
                        <mxPoint x="450" y="290" as="targetPoint"/>
                    </mxGeometry>
                </mxCell>
            </root>
        </mxGraphModel>
    </diagram>
</mxfile>